<?xml version="1.0" encoding="UTF-8"?>
<svg version="1.1" xmlns="http://www.w3.org/2000/svg" width="630" height="630">
<path d="M0 0 C207.9 0 415.8 0 630 0 C630 207.9 630 415.8 630 630 C422.1 630 214.2 630 0 630 C0 422.1 0 214.2 0 0 Z " fill="#050816" transform="translate(0,0)"/>
<path d="M0 0 C7.80537108 6.71128487 12.77373643 16.32120929 16 26 C16.66 26.33 17.32 26.66 18 27 C17.96003906 25.75992188 17.92007813 24.51984375 17.87890625 23.2421875 C17.88004841 17.41031067 18.88052164 11.84511817 19.9375 6.125 C20.11990234 5.09375 20.30230469 4.0625 20.49023438 3 C21.84022498 -4.52067495 21.84022498 -4.52067495 23 -8 C46.76 -8 70.52 -8 95 -8 C95 -3.12884753 94.85762753 0.71835323 94.06677246 5.40318298 C93.85956573 6.64763184 93.65235901 7.89208069 93.43887329 9.17424011 C93.20609866 10.53666956 92.97321536 11.89908044 92.74023438 13.26147461 C92.49656825 14.71161787 92.25340772 16.16184617 92.01071167 17.6121521 C91.35000781 21.55165802 90.68226356 25.48994183 90.01329613 29.42805171 C89.3055093 33.60225618 88.60434979 37.77757374 87.90246582 41.95277405 C86.56365576 49.91076348 85.21908865 57.86776882 83.87238741 65.82442623 C81.93176022 77.29193098 80.00033019 88.76098544 78.06877136 100.23002052 C76.63226504 108.75811591 75.19269907 117.28567335 73.74633789 125.81210327 C73.18858678 129.10237338 72.6312172 132.39270786 72.07421875 135.68310547 C71.93949472 136.47896018 71.8047707 137.27481489 71.66596413 138.09478641 C69.91698737 148.43799968 68.22066374 158.78758376 66.58203125 169.14892578 C66.22490809 171.38314368 65.8675375 173.61732204 65.5098877 175.85145569 C64.88329422 179.76628556 64.27693666 183.68338396 63.68444824 187.60350037 C59.86531055 211.99192703 49.91808333 233.8035099 29.97875977 249.05493164 C16.21843634 259.06473618 0.11848636 266.19112394 -16.375 270.1875 C-17.00978271 270.34250977 -17.64456543 270.49751953 -18.29858398 270.65722656 C-31.07065742 273.55616671 -43.7736749 274.37919522 -56.8125 274.3125 C-57.92777573 274.30976578 -57.92777573 274.30976578 -59.06558228 274.30697632 C-84.40549663 274.20255406 -111.03501816 269.56307326 -129.92578125 251.203125 C-142.47536968 237.87361865 -145 225.3442094 -145 207 C-121.9 207 -98.8 207 -75 207 C-74.01 209.97 -73.02 212.94 -72 216 C-66.11100247 222.47789729 -60.95738713 223.75213064 -52.40625 224.1796875 C-40.01896497 224.40265863 -27.54394647 223.02622466 -18.0078125 214.14453125 C-12.31169147 207.04563414 -10.63674033 198.16555107 -9.17578125 189.37109375 C-9.02465378 188.49598648 -8.87352631 187.62087921 -8.71781921 186.71925354 C-8.242799 183.95974822 -7.77748774 181.19871159 -7.3125 178.4375 C-6.98957646 176.55132189 -6.66601455 174.66525296 -6.34179688 172.77929688 C-5.55382038 168.18742564 -4.77453881 163.59415612 -4 159 C-4.66 159 -5.32 159 -6 159 C-6.24621094 159.72445312 -6.49242187 160.44890625 -6.74609375 161.1953125 C-11.88038056 172.6794805 -24.68118184 181.36665942 -36 186 C-40.29680241 187.47361468 -44.62207815 188.78984274 -49 190 C-49.59216309 190.1757959 -50.18432617 190.3515918 -50.79443359 190.53271484 C-65.78579191 193.70887821 -84.05386138 192.37585831 -98 186 C-99.52560547 185.31357422 -99.52560547 185.31357422 -101.08203125 184.61328125 C-116.17106687 177.07908426 -124.58705222 164.67155255 -130 149 C-132.71088917 139.16620146 -133.53140791 129.6664121 -133.4375 119.5 C-133.43479095 118.80645416 -133.43208191 118.11290833 -133.42929077 117.39834595 C-133.35591215 104.92844349 -131.93458741 93.12372368 -129 81 C-128.81276367 80.17226074 -128.62552734 79.34452148 -128.43261719 78.49169922 C-125.84364915 67.06491543 -122.24953183 56.47823219 -117 46 C-116.49726563 44.99259766 -116.49726563 44.99259766 -115.984375 43.96484375 C-110.85706132 33.8824023 -104.82820412 25.16763844 -97 17 C-96.52691406 16.50628906 -96.05382812 16.01257813 -95.56640625 15.50390625 C-88.22683274 8.00520919 -80.3300878 2.73515439 -71 -2 C-70.03964844 -2.49371094 -69.07929688 -2.98742187 -68.08984375 -3.49609375 C-46.98684217 -13.72877221 -19.38890711 -14.05351991 0 0 Z " fill="#CAC8FC" transform="translate(374,213)"/>
<path d="M0 0 C0.9075 -0.00773438 1.815 -0.01546875 2.75 -0.0234375 C8.37987559 -0.00721307 13.22363317 0.65615405 18.625 2.25 C16.96315831 14.49088266 15.10044523 26.69119201 13.0625 38.875 C12.74792847 40.75759521 12.74792847 40.75759521 12.42700195 42.67822266 C11.21470614 49.87925019 9.95392355 57.06957063 8.625 64.25 C7.88121094 64.105625 7.13742188 63.96125 6.37109375 63.8125 C-8.32275947 61.31437147 -27.37732935 58.55780775 -40.375 67.25 C-57.19547366 79.66976834 -60.32347083 94.74122418 -63.58984375 114.25 C-63.88936554 116.01196512 -64.18938896 117.77384503 -64.48988342 119.53564453 C-65.11810235 123.22657601 -65.74222511 126.91816713 -66.36303711 130.61035156 C-67.14498802 135.26063185 -67.93397315 139.90967925 -68.72579098 144.55828857 C-69.49561583 149.0800787 -70.2615211 153.60253067 -71.02734375 158.125 C-71.16716108 158.9485498 -71.30697842 159.77209961 -71.45103264 160.62060547 C-73.91239411 175.14293466 -76.1348187 189.68882155 -78.375 204.25 C-102.465 204.25 -126.555 204.25 -151.375 204.25 C-149.07764995 185.87119961 -149.07764995 185.87119961 -147.95761108 179.26464844 C-147.82931211 178.4914369 -147.70101314 177.71822536 -147.56882632 176.92158318 C-147.14969132 174.40032627 -146.72600949 171.87985773 -146.30224609 169.359375 C-145.99625712 167.52457249 -145.69055575 165.689722 -145.38511658 163.85482788 C-144.56378348 158.92569239 -143.73848255 153.99722895 -142.91241026 149.0688858 C-142.04656789 143.89901775 -141.18445572 138.72852769 -140.32192993 133.55810547 C-138.69192868 123.79047748 -137.05862439 114.0234049 -135.42410147 104.25653267 C-133.5617705 93.12742169 -131.70317012 81.99768871 -129.84486651 70.86790466 C-126.02569731 47.99457983 -122.20140507 25.12211556 -118.375 2.25 C-94.945 2.25 -71.515 2.25 -47.375 2.25 C-48.65841329 11.233893 -49.98509662 20.1814593 -51.5 29.125 C-51.68175781 30.20652344 -51.86351562 31.28804687 -52.05078125 32.40234375 C-52.49066423 35.01848988 -52.93207673 37.63436722 -53.375 40.25 C-50.27937401 38.702187 -49.83110286 36.05521788 -48.4375 32.9375 C-44.70268533 25.04567422 -39.58899837 19.29779931 -33.375 13.25 C-32.74464844 12.62222656 -32.11429687 11.99445313 -31.46484375 11.34765625 C-22.59069439 3.10287919 -11.84239952 -0.10007662 0 0 Z " fill="#C9C7FC" transform="translate(209.375,202.75)"/>
<path d="M0 0 C9.91588771 10.46677036 8.70238465 23.97729113 8.38623047 37.36376953 C8.1186868 43.2775395 7.04523007 48.72254868 5.25 54.375 C4.89808594 55.48875 4.54617188 56.6025 4.18359375 57.75 C0.03630991 69.57591826 -6.95681818 81.11674232 -18.60546875 86.7578125 C-27.23178831 89.94943914 -35.44153212 91.14876868 -44.0625 87.4375 C-50.15069878 84.03043169 -53.08422953 79.07415925 -55.8828125 72.859375 C-60.94761511 52.50890686 -56.10105234 29.85114809 -45.76269531 12.02392578 C-40.90535625 4.1149412 -34.18595224 -1.02519676 -25.875 -5 C-15.7599594 -7.02300812 -8.69955785 -5.14064782 0 0 Z " fill="#010101" transform="translate(373.75,263.625)"/>
<path d="M0 0 C7.24943583 5.22492783 12.17834012 11.90708584 14.5234375 20.55859375 C15.69403664 32.11672003 14.59760585 41.76731139 7.46875 51.30859375 C0.4199981 59.50368246 -8.25699184 67.48932548 -19.43847656 68.78613281 C-28.07557844 69.41292387 -35.99117438 69.36949859 -43.4765625 64.55859375 C-44.09660156 64.20796875 -44.71664062 63.85734375 -45.35546875 63.49609375 C-52.41747295 59.1033136 -56.70224273 51.7326847 -59.01171875 43.875 C-61.25853651 32.67867283 -58.3890854 22.96476456 -52.52734375 13.42578125 C-40.80306287 -2.96588002 -18.18774957 -10.5856145 0 0 Z " fill="#C9C7FB" transform="translate(565.4765625,342.44140625)"/>
</svg>
